<svg width="57" height="57" viewBox="0 0 57 57" fill="none" xmlns="http://www.w3.org/2000/svg">
<path d="M45.5952 23.5536L36.0413 26.4127M45.5952 23.5536C45.7552 23.5536 45.91 23.5114 46.0565 23.4324M45.5952 23.5536V17.1999M45.5952 23.5536C45.4353 23.5536 45.2805 23.5114 45.1339 23.4324M45.5952 17.1999L36.0413 14.7647M45.5952 17.1999C45.7552 17.1999 45.91 17.2422 46.0565 17.3212M45.5952 17.1999C45.4353 17.1999 45.2805 17.2422 45.1339 17.3212M3.07048 18.4704C2.54548 19.0705 1.81085 20.6731 3.07084 22.2827M3.07048 18.4704C2.93813 19.4788 2.75292 21.653 3.07084 22.2827M3.07048 18.4704L3.33047 18.3677M41.9205 3.12842L5.9806 17.3212M41.9205 37.6258L5.9806 23.4319M3.07084 22.2827L3.33047 22.3852M22.8687 30.1016L22.9044 30.4531M15.9974 27.3878L16.0676 27.7719M6.5365 17.1999C6.1515 18.4354 5.80151 21.2239 6.5365 23.5536M3.33047 18.3677V22.3852M3.33047 18.3677L3.74132 18.2055M3.33047 22.3852L3.74132 22.5475M3.74132 18.2055V22.5475M3.74132 18.2055L4.10813 18.0606M3.74132 22.5475L4.10813 22.6924M4.10813 18.0606V22.6924M4.10813 18.0606L4.50273 17.9048M4.10813 22.6924L4.50273 22.8482M4.50273 17.9048V22.8482M4.50273 17.9048L4.84511 17.7696M4.50273 22.8482L4.84511 22.9834M4.84511 17.7696V22.9834M4.84511 17.7696L5.21529 17.6234M4.84511 22.9834L5.21529 23.1296M5.21529 17.6234V23.1296M5.21529 17.6234L5.54142 17.4946M5.21529 23.1296L5.54142 23.2584M5.54142 17.4946V23.2584M5.54142 17.4946L5.9806 17.3212M5.54142 23.2584L5.9806 23.4319M5.9806 17.3212V23.4319M46.9787 18.574C47.1657 19.0861 47.2752 19.7073 47.2752 20.3768C47.2752 21.0463 47.1657 21.6674 46.9787 22.1796M46.9787 18.574V22.1796M46.9787 18.574C46.8681 18.2712 46.7305 18.0065 46.5724 17.7924M46.9787 22.1796C46.8681 22.4824 46.7305 22.7471 46.5724 22.9612M46.5724 22.9612V17.7924M46.5724 22.9612C46.4179 23.1705 46.2439 23.3314 46.0565 23.4324M46.5724 17.7924C46.4179 17.5831 46.2439 17.4222 46.0565 17.3212M46.0565 17.3212V23.4324M45.1339 17.3212V23.4324M45.1339 17.3212C44.9465 17.4222 44.7725 17.5831 44.618 17.7924M45.1339 23.4324C44.9465 23.3314 44.7725 23.1705 44.618 22.9612M44.618 22.9612V17.7924M44.618 22.9612C44.4491 22.7324 44.3035 22.4458 44.1894 22.1167M44.618 17.7924C44.4491 18.0212 44.3035 18.3078 44.1894 18.6369M44.1894 18.6369C44.016 19.1367 43.9152 19.7345 43.9152 20.3768C43.9152 21.0191 44.016 21.6169 44.1894 22.1167M44.1894 18.6369V22.1167M22.9044 30.4531L16.0676 27.7719M22.9044 30.4531L22.9626 31.0264M16.0676 27.7719L16.1739 28.3528M16.1739 28.3528L22.9626 31.0264M16.1739 28.3528L16.272 28.8894M22.9626 31.0264L23.011 31.503M23.011 31.503L16.272 28.8894M23.011 31.503L23.0677 32.0625M16.272 28.8894L16.3719 29.4353M16.3719 29.4353L23.0677 32.0625M16.3719 29.4353L16.4634 29.9359M23.0677 32.0625L23.1145 32.5236M16.4634 29.9359L23.1145 32.5236M16.4634 29.9359L16.558 30.4531M23.1145 32.5236L23.1648 33.0192M23.1648 33.0192L24.8051 49.1801C24.9546 51.4039 25.7501 53.8395 23.6501 54.4749C21.0861 55.2506 20.8152 52.8864 20.2902 50.4509L18.0852 38.8024L16.558 30.4531M23.1648 33.0192L16.558 30.4531M34.8852 20.3771C34.8852 30.3194 39.3041 38.3792 44.7551 38.3792C50.2061 38.3792 54.625 30.3194 54.625 20.3771C54.625 10.4348 50.2061 2.375 44.7551 2.375C39.3041 2.375 34.8852 10.4348 34.8852 20.3771Z" stroke="black" stroke-linecap="round"/>
</svg>
