<svg width="71" height="59" viewBox="0 0 71 59" fill="none" xmlns="http://www.w3.org/2000/svg">
<path d="M42.7822 51.7476C41.1279 53.4036 39.7018 54.8311 38.7194 55.8146C36.1582 58.3783 33.4689 56.8828 32.4444 55.8146L16.1053 40.0764C13.6931 37.8343 11.6542 35.6209 2.5368 26.9254C1.60352 25.9912 0.124635 23.6053 1.67532 21.5356C3.226 19.466 11.9414 8.60018 16.1053 3.426C17.3683 1.59677 20.113 -0.579564 23.6141 2.67473C26.6293 5.47741 36.9672 15.179 45.7974 22.555" stroke="#A0A0A0" stroke-width="2" stroke-linecap="round"/>
<path d="M15.9326 3.7999C16.4469 13.2324 19.9171 28.4168 37.8647 34.1315" stroke="#A0A0A0" stroke-width="2" stroke-linecap="round"/>
<path d="M62.0535 32.0378C61.8679 33.1263 61.6791 33.5843 61.5295 34.9387C61.3346 36.7032 61.2064 38.5537 61.2389 40.1265C61.296 42.8874 61.8485 44.7923 63.4057 43.8732C66.531 42.0287 68.2179 40.5162 68.6646 38.9737C69.4159 36.3798 69.4196 31.4129 65.2088 28.1658C60.1249 24.2454 54.3944 24.3518 49.8831 28.1658C45.4062 31.9507 44.182 38.0109 44.4272 41.1547C44.6955 44.5937 47.2742 51.9796 55.6884 52.0949C64.1025 52.2102 68.6615 47.6964 69.3627 45.5829" stroke="black" stroke-width="2" stroke-linecap="round"/>
<path d="M61.5296 34.9387C60.705 32.8539 54.3763 30.4272 51.9866 34.9387C49.5218 39.5917 51.4047 43.5118 53.0074 44.2804C55.0542 45.2619 58.0631 45.7753 61.239 40.1264" stroke="black" stroke-width="2" stroke-linecap="round"/>
</svg>
