<svg width="336" height="327" viewBox="0 0 336 327" fill="none" xmlns="http://www.w3.org/2000/svg">
<path d="M0.508318 318.286C-3.0114 315.164 12.6273 315.396 20.346 315.251C21.4575 316.812 22.2756 316.841 24.2825 317.202C25.2088 319.586 4.02803 321.406 0.508318 318.286Z" fill="black"/>
<path d="M120.852 82.3681C120.136 84.9584 119.602 93.3755 122.413 100.282" stroke="black" stroke-width="2" stroke-linecap="round"/>
<path d="M148.135 38.0093C154.688 43.1683 164.859 54.3041 154.973 58.8343C154.394 59.0996 154.074 59.7419 154.239 60.3545C156.184 67.5568 155.877 82.429 140.788 92.5005C140.564 92.6501 140.391 92.8728 140.309 93.1288L137.342 102.415" stroke="black" stroke-width="2" stroke-linecap="round"/>
<path d="M141.649 75.9702C141.417 76.9938 142.021 79.1094 146.298 79.3824" stroke="black" stroke-width="2" stroke-linecap="round"/>
<path d="M118.574 101.975C125.245 99.5847 137.947 96.6595 137.947 104.928V106.363C137.947 107.332 139.054 107.881 139.82 107.287" stroke="black" stroke-width="2" stroke-linecap="round"/>
<path d="M139.819 107.287C150.528 98.9906 172.316 82.3681 179.994 69.7855" stroke="black" stroke-width="2" stroke-linecap="round"/>
<path d="M153.123 49.099C153.123 51.342 152.445 53.3146 151.419 54.6924C150.394 56.0696 149.095 56.7765 147.792 56.7765C146.488 56.7765 145.189 56.0696 144.164 54.6924C143.138 53.3146 142.46 51.342 142.46 49.099C142.46 46.856 143.138 44.8835 144.164 43.5057C145.189 42.1285 146.488 41.4216 147.792 41.4216C149.095 41.4216 150.394 42.1285 151.419 43.5057C152.445 44.8835 153.123 46.856 153.123 49.099Z" stroke="black" stroke-width="2" stroke-linecap="round"/>
<path d="M128.384 55.9234L141.607 51.2316" stroke="black" stroke-width="2" stroke-linecap="round"/>
<path d="M138.621 46.9662C138.958 45.5447 140.197 42.2742 142.46 40.5683" stroke="black" stroke-width="2" stroke-linecap="round"/>
<path d="M148.431 50.3785C149.373 50.3785 150.137 49.8056 150.137 49.0989C150.137 48.3922 149.373 47.8193 148.431 47.8193C147.489 47.8193 146.725 48.3922 146.725 49.0989C146.725 49.8056 147.489 50.3785 148.431 50.3785Z" fill="black"/>
<path d="M154.928 135.596C163.496 130.649 183.918 111.67 197.055 75.3303" stroke="black" stroke-width="2" stroke-linecap="round"/>
<path d="M142.629 190.279C141.844 181.894 141.215 163.391 144.986 156.459C148.757 149.525 152.379 139.608 154.928 135.596" stroke="black" stroke-width="2" stroke-linecap="round"/>
<path d="M118.574 101.562L69.5239 159.143" stroke="black" stroke-width="2" stroke-linecap="round"/>
<path d="M69.5239 159.32C73.1605 158.828 82.614 159.067 91.3407 163.953C102.249 170.06 113.799 180.802 142.46 190.279" stroke="black" stroke-width="2" stroke-linecap="round"/>
<path d="M142.46 190.279L132.65 197.103" stroke="black" stroke-width="2" stroke-linecap="round"/>
<path d="M69.5293 159.143C68.8649 161.202 68.2053 166.006 73.789 171.939" stroke="black" stroke-width="2" stroke-linecap="round"/>
<path d="M105.352 117.343C97.4144 123.955 77.2871 137.904 60.2779 140.805C56.3094 142.44 49.4775 147.032 53.8998 152.322C58.3221 157.611 61.2705 164.053 62.1919 166.612C62.9006 168.958 64.6648 172.229 68.9171 164.722" stroke="black" stroke-width="2" stroke-linecap="round"/>
<path d="M55.4482 154.451C52.153 156.394 44.4687 160.107 40.0936 159.416C35.7186 158.725 32.8019 160.568 31.8904 161.575C31.3996 162.367 31.0912 163.993 33.7835 164.166C36.4758 164.338 39.673 164.237 40.9349 164.166" stroke="black" stroke-width="2" stroke-linecap="round"/>
<path d="M44.3587 161.275C42.8828 162.929 37.8648 166.687 29.5997 168.492C27.9833 168.792 25.8046 170.521 28.7564 172.551C31.2865 174.13 38.2864 172.686 41.8286 170.521" stroke="black" stroke-width="2" stroke-linecap="round"/>
<path d="M41.7901 170.232C39.0793 171.597 34.1999 175.23 36.3686 178.849C37.0636 179.567 39.9968 179.624 46.1691 174.11L50.7565 170.232" stroke="black" stroke-width="2" stroke-linecap="round"/>
<path d="M50.9863 170.315L46.3024 174.227C44.954 177.777 42.896 186.4 48.4315 181.618C52.4766 177.488 51.625 173.967 53.3282 172.923C55.0314 171.88 58.8636 167.851 60.5669 165.967" stroke="black" stroke-width="2" stroke-linecap="round"/>
<path d="M51.187 163.408C50.6196 165.164 50.1657 169.243 52.8892 171.512" stroke="black" stroke-width="2" stroke-linecap="round"/>
<path d="M102.793 307.147C105.476 306.437 110.884 302.84 111.054 294.139C111.223 285.437 114.796 270.466 116.561 264.068L133.929 187.294" stroke="black" stroke-width="2" stroke-linecap="round"/>
<path d="M140.327 63.601C140.798 63.601 141.18 63.3145 141.18 62.9612C141.18 62.6079 140.798 62.3214 140.327 62.3214C139.856 62.3214 139.474 62.6079 139.474 62.9612C139.474 63.3145 139.856 63.601 140.327 63.601Z" fill="black"/>
<path d="M143.1 66.1599C143.453 66.1599 143.74 65.969 143.74 65.7334C143.74 65.4978 143.453 65.3069 143.1 65.3069C142.746 65.3069 142.46 65.4978 142.46 65.7334C142.46 65.969 142.746 66.1599 143.1 66.1599Z" fill="black"/>
<path d="M136.915 67.8661C137.151 67.8661 137.342 67.4842 137.342 67.0131C137.342 66.542 137.151 66.16 136.915 66.16C136.679 66.16 136.489 66.542 136.489 67.0131C136.489 67.4842 136.679 67.8661 136.915 67.8661Z" fill="black"/>
<path d="M92.9271 62.6812C96.2639 76.8373 108.03 83.4137 116.748 88.6136C121.156 82.9324 127.368 71.3042 123.386 72.1002C119.201 72.9364 110.611 64.2532 112.92 59.4206C115.63 53.7506 122.028 57.7018 124.655 61.6786L125.501 54.0505C122.653 50.2314 119.006 42.9377 127.201 44.3151C135.397 45.6926 144.26 40.4782 147.667 37.6989C152.909 28.8368 159.185 10.7888 142.354 9.49371C128.355 8.41654 116.945 22.6094 110.948 33.4872C104.139 34.5589 88.3774 43.3801 92.9271 62.6812Z" fill="black"/>
<path d="M68.6709 309.706C70.0847 311.92 74.7938 316.096 82.3197 315.1" stroke="black" stroke-width="2" stroke-linecap="round"/>
<path d="M80.5243 160.422C77.8556 168.056 65.3521 183.748 54.1836 203.47C46.7379 215.84 28.9805 243.464 17.517 255C15.9717 257.191 14.5246 262.167 21.0994 264.542C26.1568 266.662 28.4327 271.582 29.107 276.841C29.9499 283.415 40.697 288.292 47.8617 283.415C53.5724 279.527 69.993 251.525 82.3985 235.702C85.557 231.673 88.4552 228.434 90.8501 226.584" stroke="black" stroke-width="2" stroke-linecap="round"/>
<path d="M82.7054 235.917L68.6709 309.706C75.8044 307.803 95.4 304.209 107.485 304.209" stroke="black" stroke-width="2" stroke-linecap="round"/>
<path d="M12.8528 303.608C1.22704 281.073 12.004 266.076 17.8325 262.362C26.8679 265.204 27.1121 274.678 28.5773 279.178L25.1956 288.437C22.9328 292.42 24.2528 300.211 25.1956 303.608C29.1042 319.348 23.205 320.861 20.3099 316.646L12.8528 303.608Z" fill="black"/>
<path d="M74.8383 324.273C70.9222 321.172 78.6674 319.97 86.5266 319.516C89.2646 321.965 107.45 322.8 108.338 323.367C99.9712 326.087 78.2701 326.99 74.8383 324.273Z" fill="black"/>
<path d="M114.173 322.945C84.4817 327.016 78.3195 315.273 78.9498 308.407C84.0562 306.275 98.0977 305.499 104.717 305.015C102.826 309.473 105.19 308.892 106.845 310.103C108.973 311.557 114.882 313.334 118.192 313.496C133.085 314.223 121.423 321.896 114.173 322.945Z" fill="black"/>
<path d="M184.116 32.241C185.476 31.459 188.281 31.1747 188.622 36.293" stroke="black" stroke-width="2" stroke-linecap="round"/>
<path d="M181.371 45.8899C181.513 43.8997 181.371 39.3641 179.665 37.1462C177.533 34.3738 177.106 29.0422 181.371 29.4687C182.725 29.6041 183.587 30.729 184.116 32.2411C184.92 34.5397 184.955 37.7329 184.784 39.7054" stroke="black" stroke-width="2" stroke-linecap="round"/>
<path d="M178.69 51.4346C178.518 49.5152 177.789 45.0794 176.253 42.6908C174.334 39.7052 174.121 32.0277 178.173 32.8808" stroke="black" stroke-width="2" stroke-linecap="round"/>
<path d="M181.371 65.9366C180.305 65.9366 178.044 64.9129 177.533 60.8183C177.021 56.7236 175.187 54.1363 174.334 53.3541C173.836 52.1457 173.31 49.6433 175.187 49.3021C176.292 49.1012 177.599 50.1722 178.69 51.4347L180.518 53.9939" stroke="black" stroke-width="2" stroke-linecap="round"/>
<path d="M191.181 46.9562C191.679 46.0323 192.162 43.6719 190.115 41.6247C187.556 39.0655 188.196 36.7196 189.689 36.0798C191.181 35.44 193.314 35.8666 195.447 42.2645C197.579 47.8092 200.736 61.8846 197.153 73.8273" stroke="black" stroke-width="2" stroke-linecap="round"/>
<path d="M200.924 13.5863L204.27 7.50262" stroke="black" stroke-width="2" stroke-linecap="round"/>
<path d="M171.988 16.4597L177.959 20.2984" stroke="black" stroke-width="2" stroke-linecap="round"/>
<path d="M182.822 1L188.664 14.4317" stroke="black" stroke-width="2" stroke-linecap="round"/>
<path d="M203.5 32.0366C203.5 27.5587 204.542 20.0838 209.958 26.8535C213.291 31.7192 214.541 41.4084 212.041 46.3163" stroke="black" stroke-width="2" stroke-linecap="round"/>
<path d="M192.459 36.1618C191.765 33.6937 191.417 29.0959 195.584 30.4499L200.167 39.7582" stroke="black" stroke-width="2" stroke-linecap="round"/>
<path d="M200.167 39.7584L195.584 30.45C195.237 27.6998 197.042 23.2572 201.417 26.8536L203.5 32.0367L205.583 37.2197" stroke="black" stroke-width="2" stroke-linecap="round"/>
<path d="M205.684 52.9275C204.546 55.4158 203.338 61.0741 207.603 63.8039" stroke="black" stroke-width="2" stroke-linecap="round"/>
<path d="M211.015 49.3021C212.01 46.4589 215.024 40.8144 219.119 40.985C223.214 41.1556 219.972 46.5297 219.119 48.449L213.148 60.1785C211.868 63.3774 209.949 69.1356 214.427 75.7467C218.906 81.7181 234.349 97.073 250.984 99.6322" stroke="black" stroke-width="2" stroke-linecap="round"/>
<path d="M247.909 188.776C249.189 193.326 253.881 203.875 262.411 209.676M234.687 181.312L251.535 186.217L234.687 181.312ZM250.682 194.748C252.53 188.705 254.904 173.72 249.615 162.118C243.004 147.616 238.952 129.062 242.151 116.693C244.71 106.798 254.023 105.319 258.359 105.817C265.184 106.6 276.956 114.774 276.273 136.953C275.42 164.677 269.022 188.35 259.852 206.69L250.682 194.748Z" stroke="black" stroke-width="2" stroke-linecap="round"/>
<path d="M243.857 204.771C243.857 193.895 243.786 186.217 242.578 183.231C258.956 189.373 278.832 187.781 286.723 186.217C286.936 186.715 288.685 191.463 293.974 206.477C300.585 225.244 295.893 287.944 293.974 294.981C292.055 302.019 286.936 302.232 279.472 301.379C273.501 300.697 265.61 284.318 262.411 276.214C247.483 248.277 243.857 217.533 243.857 204.771Z" fill="black"/>
<path d="M301.766 148.058C303.882 153.247 308.667 166.441 310.885 177.701C304.771 182.038 287.576 190.269 267.103 187.71L234.687 181.312C233.408 170.578 233.257 143.238 241.788 118.841C241.788 116.637 244.028 110.466 248.976 107.736" stroke="black" stroke-width="2" stroke-linecap="round"/>
<path d="M299.946 166.597C299.855 165.227 302.382 155.265 301.767 148.058C301.424 144.039 300.986 139.024 300.436 132.916C298.9 115.855 292.829 102.775 289.986 98.3673C287.142 93.96 280.415 91.3147 275.083 93.2341" stroke="black" stroke-width="2" stroke-linecap="round"/>
<path d="M295.852 280.886C297.69 240.887 289.537 203.093 285.017 188.349C296.416 186.811 305.395 181.884 308.689 180.245C311.999 192.724 316.842 224.762 318.833 239.434C323.798 255.502 322.74 278.608 321.591 288.151C322.327 293.963 317.608 296.271 315.156 296.699C302.103 300.972 296.848 287.938 295.852 280.886Z" fill="black"/>
<path d="M192.035 35.4401C195.66 41.2693 201.034 55.4014 196.94 75.5335C197.295 79.87 203.623 94.2094 208.456 100.699C215.92 110.722 231.488 122.025 241.085 125.224" stroke="black" stroke-width="2" stroke-linecap="round"/>
<path d="M258.203 96.3113C255.381 94.5749 234.158 96.2486 230.032 69.5519C222.967 69.6346 219.126 63.8479 224.516 61.3715C230.262 58.4084 229.831 52.9685 228.79 49.7632C227.135 45.5598 227.035 41.1464 227.392 40.2233" stroke="black" stroke-width="2" stroke-linecap="round"/>
<path d="M235.893 59.956C234.883 59.9679 234.051 58.7502 234.033 57.2364C234.015 55.7226 234.819 54.4858 235.828 54.474C236.838 54.4622 237.67 55.6798 237.688 57.1936C237.706 58.7074 236.902 59.9442 235.893 59.956Z" fill="black"/>
<path d="M240.2 51.0995C239.021 49.8399 235.973 47.9969 233.211 50.7041" stroke="black" stroke-width="2" stroke-linecap="round"/>
<path d="M248.205 75.6319C246.04 78.9652 243.661 79.9117 239.042 77.7607" stroke="black" stroke-width="2" stroke-linecap="round"/>
<path d="M265.939 52.2681C266.44 53.3702 266.861 55.8722 264.528 57.0631" stroke="black" stroke-width="2" stroke-linecap="round"/>
<path d="M290.803 40.9504C293.551 55.9877 284.951 67.3073 278.717 76.0093C272.058 72.412 261.146 63.8576 265.331 62.9342C269.73 61.9638 274.37 49.9643 270.098 46.2937C265.085 41.9868 260.567 48.5031 259.707 53.4439L255.669 46.4626C256.811 41.5794 257.259 33.0137 249.917 37.8157C242.575 42.6174 231.806 41.3597 227.339 40.1306C218.531 33.8263 204.847 19.1211 220.572 10.7352C233.652 3.76049 250.671 12.5785 261.06 20.5019C268.095 18.6448 287.055 20.4476 290.803 40.9504Z" fill="black"/>
<path d="M278.228 75.002C275.048 78.8297 273.469 82.0081 273.665 88.5924" stroke="black" stroke-width="2" stroke-linecap="round"/>
<path d="M297.971 326.861C271.526 327.927 258.943 322.622 258.943 318.97C258.943 317.478 258.09 315.985 264.062 313.852C261.503 317.335 262.441 323.961 286.668 322.596C290.577 322.809 299.378 321.785 303.302 315.985H305.222C324.415 311.08 335.718 315.106 335.718 318.757C335.718 322.409 319.937 325.976 297.971 326.861Z" fill="black"/>
<path d="M302.927 315.891C317.211 317.256 319.012 305.797 318.128 299.896" stroke="black" stroke-width="2" stroke-linecap="round"/>
<path d="M284.006 305.441C284.006 306.366 283.792 308.384 282.939 309.067C281.873 309.92 262.679 307.787 263.106 317.384C262.893 318.735 265.025 320.796 270.143 321.436C277.342 322.336 297.978 324.963 302.927 315.891C303.215 315.363 303.45 314.795 303.626 314.185L305.545 306.081" stroke="black" stroke-width="2" stroke-linecap="round"/>
<path d="M117.699 63.2363C117.704 64.8697 118.56 68.1726 121.932 68.3168" stroke="black" stroke-width="2" stroke-linecap="round"/>
</svg>
