<svg width="271" height="271" viewBox="0 0 271 271" fill="none" xmlns="http://www.w3.org/2000/svg">
<path d="M95.3431 119.692L51.5926 92.9412C42.7569 87.5388 43.102 74.1324 52.2028 69.2292L109.441 38.3916M175.657 38.3916L219.408 65.1421C228.243 70.5445 227.898 83.9508 218.797 88.854L161.559 119.692M148.53 11.2916L122.47 146.792" stroke="black" stroke-width="3" stroke-linecap="round"/>
<path d="M165.545 196.032C180.427 195.673 214.766 190.992 228.469 186.533C236.737 183.842 243.682 186.856 242.801 196.756C241.919 206.656 210.279 224.384 184.373 228.501C168.572 231.012 131.237 234.527 108.306 228.501C85.3763 222.475 59.0655 246.795 48.7763 259.708M167.833 188.686C184.185 186.354 221.367 178.685 231.222 174.158C240.592 169.854 246.655 174.158 248.309 180.615C248.676 182.409 248.309 186.641 243.899 189.224M152.399 174.156C165.628 168.417 194.291 159.306 203.11 168.776M162.873 180.613C164.527 179.537 187.126 175.233 208.623 167.162C213.217 165.727 222.955 165.117 225.16 174.156M11.2917 198.908C31.0393 176.954 81.7937 143.81 118.79 171.066C119.131 171.317 119.556 171.435 119.979 171.382C133.45 169.712 160.54 171.012 166.18 189.223C171.913 207.732 126.677 201.957 103.343 196.756" stroke="black" stroke-opacity="0.3" stroke-width="3"/>
</svg>
