<svg width="94" height="50" viewBox="0 0 94 50" fill="none" xmlns="http://www.w3.org/2000/svg">
<path fill-rule="evenodd" clip-rule="evenodd" d="M67.2596 9.73C66.3574 8.94272 63.4586 6.24965 63.4586 4.14811C63.4586 1.65924 65.0849 0 67.5243 0C69.9637 0 71.59 2.07406 71.59 4.14811C71.59 5.90785 68.6632 8.86208 67.7761 9.71703C67.6314 9.85649 67.4108 9.86199 67.2596 9.73ZM68.8795 3.59503C68.8795 4.35867 68.2728 4.97773 67.5243 4.97773C66.7758 4.97773 66.1691 4.35867 66.1691 3.59503C66.1691 2.83139 66.7758 2.21233 67.5243 2.21233C68.2728 2.21233 68.8795 2.83139 68.8795 3.59503Z" fill="black"/>
<path d="M3.24231 46.4732L4.04406 42.6334L15.4021 39.8665L29.8336 44.158L45.6013 42.6334L59.4314 45.7391L74.4641 41.4476L86.5572 44.6662L87.4925 47.8849L74.4641 44.6662L59.4314 49.3531L45.6013 46.4732L29.8336 47.8849L14.734 43.3675L3.24231 46.4732Z" fill="#A0A0A0"/>
<path d="M2 42.8069L12.5465 10.4963L23.6938 5.64688L33.9733 9.25575L45.4544 5.64688L55.7339 9.25575L67.749 5.64688L78.0285 9.25575L91.4453 45.7391L74.5575 41.3972L59.4052 45.7391L45.4544 42.8069L30.0351 44.273L15.4168 39.9311L2 42.8069Z" stroke="black" stroke-width="2"/>
<path d="M23.4579 8.24429L16.9076 36.3653" stroke="#A0A0A0" stroke-width="2"/>
<path d="M34.1868 11.1805L30.7987 39.4145" stroke="#A0A0A0" stroke-width="2"/>
<path d="M46.2709 9.8255V39.4147" stroke="#A0A0A0" stroke-width="2"/>
<path d="M56.8868 11.9712L60.162 41.8992" stroke="#A0A0A0" stroke-width="2"/>
<path d="M68.9711 9.8255L73.9403 38.3983" stroke="#A0A0A0" stroke-width="2"/>
<path d="M15.3264 28.4599C20.2956 36.5348 43.5039 30.9445 34.567 24.0637C23.6736 15.6766 44.5204 11.0677 48.7977 16.9111C54.7411 26.0882 66.2041 21.7967 67.5593 13.27" stroke="black" stroke-width="2" stroke-miterlimit="3.99933" stroke-linecap="round" stroke-dasharray="30 5"/>
</svg>
