<svg width="76" height="76" viewBox="0 0 76 76" fill="none" xmlns="http://www.w3.org/2000/svg">
<path d="M69.8883 39.7575C70.773 37.5708 70.991 35.1713 70.5149 32.861C70.0387 30.5506 68.8897 28.4328 67.2125 26.7742C65.0986 24.7049 62.5514 23.1311 59.755 22.1667C55.283 20.6366 50.6913 19.482 46.0275 18.715C41.3781 17.8439 36.665 17.3567 31.9358 17.2583C28.9774 17.2068 26.0434 17.8012 23.3383 19C21.1963 19.9876 19.3939 21.5859 18.1573 23.5944C16.9206 25.6029 16.3049 27.932 16.3875 30.2892C16.3893 30.5999 16.4667 30.9056 16.613 31.1798C16.7593 31.454 16.9701 31.6884 17.2273 31.863C17.4844 32.0375 17.7802 32.1469 18.089 32.1817C18.3978 32.2164 18.7105 32.1755 19 32.0625L25.6975 29.6717C26.2129 29.4536 26.6258 29.0473 26.8523 28.5355C27.0788 28.0237 27.1018 27.4448 26.9166 26.9167L26.3308 25.3333C26.2498 25.1125 26.223 24.8754 26.2524 24.642C26.2819 24.4086 26.3669 24.1857 26.5002 23.9919C26.6335 23.7981 26.8114 23.639 27.0188 23.5281C27.2262 23.4171 27.4572 23.3575 27.6925 23.3542C33.4698 23.2322 39.2463 23.6349 44.9508 24.5575C50.6297 25.6354 56.1994 27.2253 61.5916 29.3075C61.8118 29.3911 62.0087 29.5262 62.1658 29.7017C62.3229 29.8771 62.4357 30.0876 62.4946 30.3156C62.5535 30.5436 62.5569 30.7824 62.5045 31.012C62.4521 31.2415 62.3454 31.4552 62.1933 31.635L61.085 32.965C60.9 33.186 60.7606 33.4415 60.6748 33.7166C60.589 33.9917 60.5584 34.2811 60.5849 34.5681C60.6114 34.855 60.6944 35.1339 60.8291 35.3887C60.9639 35.6435 61.1477 35.8691 61.37 36.0525L66.8325 40.5808C67.0692 40.7838 67.352 40.9259 67.6561 40.9948C67.9603 41.0637 68.2767 41.0573 68.5778 40.9762C68.879 40.8951 69.1557 40.7417 69.3841 40.5293C69.6125 40.3169 69.7855 40.052 69.8883 39.7575Z" fill="#4D69FF"/>
<path opacity="0.15" d="M20.615 72.0417C20.615 72.3536 21.2088 72.6624 22.3626 72.9505C23.5164 73.2387 25.2075 73.5005 27.3393 73.721C29.4712 73.9416 32.0021 74.1165 34.7875 74.2359C37.573 74.3552 40.5584 74.4167 43.5733 74.4167C46.5883 74.4167 49.5737 74.3552 52.3591 74.2359C55.1445 74.1165 57.6754 73.9416 59.8073 73.721C61.9392 73.5005 63.6303 73.2387 64.7841 72.9505C65.9378 72.6624 66.5317 72.3536 66.5317 72.0417C66.5317 71.4118 64.1128 70.8077 59.8073 70.3623C55.5018 69.9169 49.6623 69.6667 43.5733 69.6667C37.4844 69.6667 31.6449 69.9169 27.3393 70.3623C23.0338 70.8077 20.615 71.4118 20.615 72.0417Z" fill="#1B1B1B"/>
<path d="M21.1692 56.4617H65.5025V66.0725C65.5025 66.463 65.3474 66.8376 65.0712 67.1137C64.7951 67.3899 64.4206 67.545 64.03 67.545H22.6417C22.2512 67.545 21.8766 67.3899 21.6005 67.1137C21.3243 66.8376 21.1692 66.463 21.1692 66.0725V56.4617Z" fill="#4D69FF"/>
<path d="M21.1692 56.4617H65.5025V66.0725C65.5025 66.463 65.3474 66.8376 65.0712 67.1137C64.7951 67.3899 64.4206 67.545 64.03 67.545H22.6417C22.2512 67.545 21.8766 67.3899 21.6005 67.1137C21.3243 66.8376 21.1692 66.463 21.1692 66.0725V56.4617Z" stroke="#1B1B1B" stroke-linecap="round" stroke-linejoin="round"/>
<path d="M65.5025 56.4617H21.1692L27.5025 36.7967C27.5998 36.5003 27.7887 36.2424 28.0419 36.0603C28.2952 35.8782 28.5998 35.7812 28.9117 35.7833H57.7759C58.0878 35.7812 58.3924 35.8782 58.6456 36.0603C58.8989 36.2424 59.0878 36.5003 59.185 36.7967L65.5025 56.4617Z" fill="#4D69FF"/>
<path d="M26.4892 41.6892H60.1667C60.3711 41.6871 60.5744 41.7192 60.7683 41.7842L59.185 36.7967C59.0877 36.5003 58.8988 36.2424 58.6456 36.0603C58.3923 35.8782 58.0878 35.7812 57.7758 35.7833H28.8958C28.5839 35.7812 28.2793 35.8782 28.0261 36.0603C27.7728 36.2424 27.5839 36.5003 27.4867 36.7967L25.9033 41.7842C26.0925 41.7223 26.2901 41.6902 26.4892 41.6892Z" fill="#4D69FF"/>
<path d="M65.5025 56.4617H21.1692L27.5025 36.7967C27.5998 36.5003 27.7887 36.2424 28.0419 36.0603C28.2952 35.8782 28.5998 35.7812 28.9117 35.7833H57.7759C58.0878 35.7812 58.3924 35.8782 58.6456 36.0603C58.8989 36.2424 59.0878 36.5003 59.185 36.7967L65.5025 56.4617Z" stroke="#1B1B1B" stroke-linecap="round" stroke-linejoin="round"/>
<path d="M30.0359 32.0783H36.6859V35.7675H30.0359V32.0783ZM49.9859 32.0783H56.6359V35.7675H49.9859V32.0783Z" fill="#4D69FF" stroke="#1B1B1B" stroke-linecap="round" stroke-linejoin="round"/>
<path d="M22.8633 21.8183C25.5658 20.5826 28.5051 19.9504 31.4767 19.9658C36.2059 20.0642 40.919 20.5514 45.5683 21.4225C50.2317 22.1917 54.8233 23.3462 59.2958 24.8742C62.0962 25.861 64.6431 27.4562 66.7533 29.545C67.945 30.7219 68.8753 32.1367 69.4837 33.6972C70.092 35.2576 70.3648 36.9287 70.2842 38.6017C70.8852 36.5364 70.917 34.347 70.3763 32.2651C69.8356 30.1832 68.7425 28.286 67.2125 26.7742C65.0987 24.7049 62.5514 23.1311 59.755 22.1667C55.283 20.6366 50.6913 19.482 46.0275 18.715C41.3781 17.8439 36.665 17.3567 31.9358 17.2583C28.9774 17.2068 26.0434 17.8012 23.3383 19C21.3513 19.9122 19.6533 21.3533 18.4302 23.1657C17.2071 24.978 16.5059 27.0918 16.4033 29.2758C16.8855 27.6438 17.7114 26.1338 18.8257 24.8475C19.94 23.5612 21.3167 22.5283 22.8633 21.8183Z" fill="#4D69FF"/>
<path d="M69.8883 39.7575C70.773 37.5708 70.991 35.1713 70.5149 32.861C70.0387 30.5506 68.8897 28.4328 67.2125 26.7742C65.0986 24.7049 62.5514 23.1311 59.755 22.1667C55.283 20.6366 50.6913 19.482 46.0275 18.715C41.3781 17.8439 36.665 17.3567 31.9358 17.2583C28.9774 17.2068 26.0434 17.8012 23.3383 19C21.1963 19.9876 19.3939 21.5859 18.1573 23.5944C16.9206 25.6029 16.3049 27.932 16.3875 30.2892C16.3893 30.5999 16.4667 30.9056 16.613 31.1798C16.7593 31.454 16.9701 31.6884 17.2273 31.863C17.4844 32.0375 17.7802 32.1469 18.089 32.1816C18.3978 32.2164 18.7105 32.1755 19 32.0625L25.6975 29.6717C26.2129 29.4536 26.6258 29.0473 26.8523 28.5355C27.0788 28.0237 27.1018 27.4448 26.9166 26.9167L26.3308 25.3333C26.2498 25.1125 26.223 24.8754 26.2524 24.642C26.2819 24.4086 26.3669 24.1857 26.5002 23.9919C26.6335 23.7981 26.8114 23.639 27.0188 23.5281C27.2262 23.4171 27.4572 23.3575 27.6925 23.3542C33.4698 23.2322 39.2463 23.6349 44.9508 24.5575C50.6297 25.6354 56.1994 27.2253 61.5916 29.3075C61.8118 29.3911 62.0087 29.5262 62.1658 29.7017C62.3229 29.8771 62.4357 30.0876 62.4946 30.3156C62.5535 30.5436 62.5569 30.7824 62.5045 31.012C62.4521 31.2415 62.3454 31.4552 62.1933 31.635L61.085 32.965C60.9 33.186 60.7606 33.4415 60.6748 33.7166C60.589 33.9917 60.5584 34.2811 60.5849 34.5681C60.6114 34.855 60.6944 35.1339 60.8291 35.3887C60.9639 35.6435 61.1477 35.8691 61.37 36.0525L66.8325 40.5808C67.0692 40.7838 67.352 40.9259 67.6561 40.9948C67.9603 41.0637 68.2767 41.0573 68.5778 40.9762C68.879 40.8951 69.1557 40.7417 69.3841 40.5293C69.6125 40.3169 69.7855 40.052 69.8883 39.7575Z" stroke="#1B1B1B" stroke-linecap="round" stroke-linejoin="round"/>
<path d="M22.6417 67.5608H64.0301V69.7775C64.0301 70.168 63.8749 70.5426 63.5988 70.8187C63.3226 71.0949 62.9481 71.25 62.5576 71.25H24.1142C23.7237 71.25 23.3492 71.0949 23.073 70.8187C22.7969 70.5426 22.6417 70.168 22.6417 69.7775V67.5608Z" fill="white" stroke="#1B1B1B" stroke-linecap="round" stroke-linejoin="round"/>
<path d="M36.6858 52.0283C36.6858 52.4203 36.5312 52.7965 36.2555 53.0752C35.9798 53.3539 35.6053 53.5125 35.2133 53.5167H30.0833C29.7171 53.4787 29.3779 53.3064 29.1313 53.033C28.8848 52.7596 28.7483 52.4044 28.7483 52.0363C28.7483 51.6681 28.8848 51.3129 29.1313 51.0395C29.3779 50.7661 29.7171 50.5938 30.0833 50.5558H35.2608C35.6431 50.5682 36.0055 50.7287 36.2715 51.0036C36.5374 51.2784 36.686 51.6459 36.6858 52.0283ZM58.1242 52.0283C58.1242 52.4231 57.9673 52.8016 57.6882 53.0807C57.4091 53.3599 57.0306 53.5167 56.6358 53.5167H51.4742C51.2669 53.5381 51.0574 53.5158 50.8593 53.4512C50.6612 53.3866 50.4789 53.2811 50.3241 53.1415C50.1694 53.002 50.0456 52.8315 49.961 52.6411C49.8763 52.4507 49.8325 52.2446 49.8325 52.0363C49.8325 51.8279 49.8763 51.6218 49.961 51.4314C50.0456 51.241 50.1694 51.0705 50.3241 50.931C50.4789 50.7914 50.6612 50.6859 50.8593 50.6213C51.0574 50.5567 51.2669 50.5344 51.4742 50.5558H56.6358C57.0278 50.5558 57.404 50.7104 57.6827 50.9861C57.9613 51.2618 58.12 51.6364 58.1242 52.0283ZM36.6858 46.1225C36.6858 46.513 36.5307 46.8876 36.2545 47.1637C35.9784 47.4399 35.6039 47.595 35.2133 47.595H31.5083C31.1178 47.595 30.7433 47.4399 30.4671 47.1637C30.191 46.8876 30.0358 46.513 30.0358 46.1225C30.0358 45.732 30.191 45.3574 30.4671 45.0813C30.7433 44.8051 31.1178 44.65 31.5083 44.65H35.2133C35.6039 44.65 35.9784 44.8051 36.2545 45.0813C36.5307 45.3574 36.6858 45.732 36.6858 46.1225ZM56.6358 46.1225C56.6358 46.513 56.4807 46.8876 56.2045 47.1637C55.9284 47.4399 55.5539 47.595 55.1633 47.595H51.4742C51.0836 47.595 50.7091 47.4399 50.4329 47.1637C50.1568 46.8876 50.0017 46.513 50.0017 46.1225C50.0017 45.732 50.1568 45.3574 50.4329 45.0813C50.7091 44.8051 51.0836 44.65 51.4742 44.65H55.1633C55.5539 44.65 55.9284 44.8051 56.2045 45.0813C56.4807 45.3574 56.6358 45.732 56.6358 46.1225ZM37.43 40.2167C37.4258 40.6086 37.2672 40.9832 36.9885 41.2589C36.7098 41.5346 36.3337 41.6892 35.9417 41.6892H32.9967C32.7894 41.7106 32.5799 41.6883 32.3818 41.6237C32.1837 41.5591 32.0014 41.4536 31.8466 41.314C31.6919 41.1745 31.5681 41.004 31.4835 40.8136C31.3988 40.6232 31.355 40.4171 31.355 40.2088C31.355 40.0004 31.3988 39.7943 31.4835 39.6039C31.5681 39.4135 31.6919 39.243 31.8466 39.1035C32.0014 38.9639 32.1837 38.8584 32.3818 38.7938C32.5799 38.7292 32.7894 38.7069 32.9967 38.7283H35.9417C36.3364 38.7283 36.7149 38.8851 36.9941 39.1643C37.2732 39.4434 37.43 39.8219 37.43 40.2167ZM46.2967 40.2167C46.2925 40.6086 46.1338 40.9832 45.8552 41.2589C45.5765 41.5346 45.2003 41.6892 44.8083 41.6892H41.8633C41.656 41.7106 41.4466 41.6883 41.2485 41.6237C41.0504 41.5591 40.868 41.4536 40.7133 41.314C40.5585 41.1745 40.4348 41.004 40.3501 40.8136C40.2654 40.6232 40.2217 40.4171 40.2217 40.2088C40.2217 40.0004 40.2654 39.7943 40.3501 39.6039C40.4348 39.4135 40.5585 39.243 40.7133 39.1035C40.868 38.9639 41.0504 38.8584 41.2485 38.7938C41.4466 38.7292 41.656 38.7069 41.8633 38.7283H44.8083C45.203 38.7283 45.5816 38.8851 45.8607 39.1643C46.1398 39.4434 46.2967 39.8219 46.2967 40.2167Z" fill="white" stroke="#1B1B1B" stroke-linecap="round" stroke-linejoin="round"/>
<path d="M21.1375 4.0375C21.2106 3.99868 21.2922 3.97839 21.375 3.97839C21.4578 3.97839 21.5393 3.99868 21.6125 4.0375C21.6827 4.07911 21.7422 4.13659 21.7862 4.20533C21.8302 4.27407 21.8574 4.35215 21.8658 4.43333L22.515 11.4792C22.5233 11.5966 22.494 11.7135 22.4314 11.8132C22.3687 11.9128 22.276 11.9899 22.1666 12.0333C22.0554 12.0711 21.9348 12.0715 21.8233 12.0343C21.7118 11.9971 21.6155 11.9245 21.5491 11.8275L17.7016 6.0325C17.6711 5.96258 17.6554 5.88712 17.6554 5.81083C17.6554 5.73455 17.6711 5.65908 17.7016 5.58917C17.7245 5.51273 17.7651 5.44277 17.8202 5.38499C17.8752 5.32721 17.9431 5.28324 18.0183 5.25667L21.1375 4.0375ZM33.44 3.9425C33.5199 3.96187 33.5937 4.00102 33.6546 4.05635C33.7155 4.11168 33.7614 4.18142 33.7883 4.25917C33.8271 4.32946 33.8475 4.40845 33.8475 4.48875C33.8475 4.56905 33.8271 4.64804 33.7883 4.71833L30.0833 10.735C30.0176 10.8304 29.9229 10.9021 29.8133 10.9394C29.7036 10.9767 29.5848 10.9777 29.4746 10.9421C29.3643 10.9066 29.2685 10.8364 29.2013 10.742C29.1341 10.6477 29.0992 10.5341 29.1016 10.4183L29.5766 3.45167C29.5843 3.37173 29.6078 3.29412 29.6459 3.22342C29.6839 3.15272 29.7358 3.09035 29.7983 3.04C29.8707 3.00816 29.9488 2.99172 30.0279 2.99172C30.1069 2.99172 30.1851 3.00816 30.2575 3.04L33.44 3.9425ZM9.11998 11.7958C9.06436 11.8548 9.02158 11.9246 8.99432 12.0009C8.96707 12.0772 8.95594 12.1583 8.96165 12.2392C8.96942 12.3267 8.99788 12.411 9.04468 12.4854C9.09148 12.5597 9.15528 12.6218 9.23081 12.6667L15.3741 16.1658C15.4784 16.2212 15.5975 16.2418 15.7143 16.2247C15.8311 16.2076 15.9393 16.1537 16.0233 16.0708C16.0965 15.9785 16.1364 15.8641 16.1364 15.7463C16.1364 15.6284 16.0965 15.514 16.0233 15.4217L12.35 9.5C12.3082 9.43471 12.2525 9.37952 12.1867 9.33845C12.121 9.29737 12.047 9.27143 11.97 9.2625C11.8926 9.25285 11.8141 9.26064 11.7401 9.2853C11.6661 9.30995 11.5986 9.35085 11.5425 9.405L9.11998 11.7958ZM3.95831 22.9583C3.94811 23.0419 3.95706 23.1266 3.9845 23.2062C4.01193 23.2857 4.05712 23.358 4.11665 23.4175C4.17376 23.475 4.24383 23.5179 4.32097 23.5427C4.39811 23.5675 4.48007 23.5734 4.55998 23.56L11.5741 22.6258C11.6902 22.6097 11.7979 22.5561 11.8808 22.4733C11.9636 22.3904 12.0172 22.2828 12.0333 22.1667C12.0416 22.0493 12.0123 21.9323 11.9497 21.8327C11.8871 21.733 11.7944 21.6559 11.685 21.6125L5.14581 19.1742C5.07433 19.1392 4.99581 19.121 4.91623 19.121C4.83665 19.121 4.75813 19.1392 4.68665 19.1742C4.61678 19.2122 4.55722 19.2667 4.51309 19.3329C4.46896 19.3991 4.44158 19.475 4.43331 19.5542L3.95831 22.9583Z" fill="white" stroke="#1B1B1B" stroke-linejoin="round"/>
<path d="M53.4692 39.4963C53.4692 39.8868 53.314 40.2613 53.0379 40.5375C52.7617 40.8136 52.3872 40.9688 51.9967 40.9688H48.9725C48.7652 40.9902 48.5558 40.9679 48.3576 40.9033C48.1595 40.8387 47.9772 40.7332 47.8225 40.5936C47.6677 40.4541 47.544 40.2836 47.4593 40.0932C47.3746 39.9028 47.3309 39.6967 47.3309 39.4883C47.3309 39.28 47.3746 39.0739 47.4593 38.8835C47.544 38.6931 47.6677 38.5226 47.8225 38.3831C47.9772 38.2435 48.1595 38.138 48.3576 38.0734C48.5558 38.0088 48.7652 37.9865 48.9725 38.0079H51.9333C52.1327 38.0015 52.3314 38.0353 52.5175 38.1073C52.7036 38.1792 52.8733 38.2878 53.0166 38.4267C53.1599 38.5655 53.2738 38.7318 53.3515 38.9155C53.4293 39.0992 53.4693 39.2967 53.4692 39.4963ZM45.3308 45.4021C45.333 45.596 45.2963 45.7885 45.2231 45.9681C45.1498 46.1477 45.0414 46.3109 44.9043 46.448C44.7671 46.5852 44.6039 46.6936 44.4243 46.7668C44.2447 46.8401 44.0523 46.8767 43.8583 46.8746H39.4725C39.082 46.8746 38.7074 46.7194 38.4313 46.4433C38.1551 46.1672 38 45.7926 38 45.4021C38 45.0116 38.1551 44.637 38.4313 44.3609C38.7074 44.0847 39.082 43.9296 39.4725 43.9296H43.9058C44.2894 43.9379 44.6542 44.0972 44.921 44.3729C45.1878 44.6486 45.3351 45.0184 45.3308 45.4021ZM45.3308 51.3079C45.3329 51.5026 45.2964 51.6958 45.2233 51.8763C45.1503 52.0568 45.0421 52.221 44.9052 52.3594C44.7682 52.4978 44.6052 52.6077 44.4255 52.6827C44.2458 52.7577 44.053 52.7963 43.8583 52.7963H39.4725C39.1063 52.7583 38.7671 52.586 38.5205 52.3126C38.2739 52.0391 38.1375 51.684 38.1375 51.3158C38.1375 50.9476 38.2739 50.5925 38.5205 50.3191C38.7671 50.0457 39.1063 49.8733 39.4725 49.8354H43.9058C44.2881 49.8478 44.6505 50.0083 44.9165 50.2831C45.1824 50.558 45.331 50.9255 45.3308 51.3079Z" fill="white" stroke="#1B1B1B" stroke-linecap="round" stroke-linejoin="round"/>
</svg>
