<svg width="424" height="158" viewBox="0 0 424 158" fill="none" xmlns="http://www.w3.org/2000/svg">
<path d="M69.14 146.101C80.4045 124.98 81.2091 94.5129 80.2033 81.9195C60.0882 48.7296 42.9904 74.1249 42.9904 74.1249C34.6929 83.5334 16.7905 113.263 11.5605 156.913" stroke="#A0A0A0" stroke-width="2" stroke-linecap="round"/>
<path d="M315.502 147.956C309.669 122.411 313.072 98.7582 315.502 90.1252C327.823 49.3923 355.255 58.2623 355.255 74.1025L358.021 117.098" stroke="#A0A0A0" stroke-width="2" stroke-linecap="round"/>
<path d="M92.2722 19.2305C95.1218 16.3287 103.692 6.12494 98.5581 1.7246C93.2779 -2.80098 82.4661 15.1351 80.706 20.583C74.5876 26.5337 65.2676 36.021 51.7905 59.5556" stroke="#A0A0A0" stroke-width="2" stroke-linecap="round"/>
<path d="M108.616 15.0578C104.984 14.8752 99.0622 15.8692 92.2724 19.2304C88.0818 22.028 78.7953 29.8359 75.1746 38.6865" stroke="#A0A0A0" stroke-width="2" stroke-linecap="round"/>
<path d="M133.508 16.7749C128.307 14.4238 118.771 12.405 108.616 15.0576C101.261 16.9789 93.5826 21.3506 86.9922 29.8214" stroke="#A0A0A0" stroke-width="2" stroke-linecap="round"/>
<path d="M83.9749 75.8349C86.8245 72.3148 97.3011 66.3305 116.41 70.5547C124.708 73.2152 141.454 76.9399 142.057 70.5547C143.817 62.7601 125.462 49.9367 116.41 53.9597C107.359 57.9828 106.856 47.4223 111.633 41.1363C116.41 34.8504 122.194 20.5184 131.245 30.8274C134.263 35.5639 133.508 44.4049 140.046 48.7438C147.135 53.4487 152.618 47.1708 149.349 42.6449C146.458 38.6421 145.337 38.7695 146.16 32.5902C146.268 31.7828 146.409 30.8677 146.583 29.8216C145.895 25.1979 142.266 19.0827 133.508 16.775C126.273 14.8685 113.393 18.0685 103.587 27.6232" stroke="#A0A0A0" stroke-width="2" stroke-linecap="round"/>
<path d="M249.432 27.3716C249.42 22.9714 251.663 16.4881 258.725 12.5803C268.783 6.27974 294.379 -1.4434 316.305 18.0683C338.23 37.5799 342.873 49.2841 342.454 52.6972" stroke="#A0A0A0" stroke-width="2" stroke-linecap="round"/>
<path d="M249.432 27.372C249.42 22.9719 251.663 16.4885 258.725 12.5807C264.173 9.56605 282.863 5.65098 292.921 13.5427" stroke="#A0A0A0" stroke-width="2" stroke-linecap="round"/>
<path d="M313.261 79.6013C313.429 74.0697 310.244 65.8725 297.169 70.2979C280.826 75.8295 251.408 73.818 251.156 60.9946C250.955 50.7359 269.344 51.1885 278.563 52.6971C284.598 53.5352 294.303 51.9931 284.849 39.1195C273.031 23.0274 266.858 24.354 261.742 34.1601C258.725 39.9432 258.725 41.4518 254.199 41.4518C246.822 41.4518 246.295 34.5936 247.887 31.0735C248.257 29.925 248.769 28.6681 249.432 27.3714C253.878 18.6635 261.742 8.26189 284.849 19.5766" stroke="#A0A0A0" stroke-width="2" stroke-linecap="round"/>
<path d="M73.1629 27.6233C68.3856 22.2592 58.5292 17.1636 46.259 27.6234C30.9212 40.6982 42.9903 80.6769 14.3263 72.8823C11.7281 72.2956 5.42532 69.6638 1 63.8305" stroke="black" stroke-width="2" stroke-linecap="round"/>
<path d="M110.879 42.897C124.205 42.2072 126.719 52.2647 139.794 57.2935" stroke="black" stroke-width="2" stroke-linecap="round"/>
<path d="M217.714 48.241C214.446 48.9953 209.92 50.3699 204.388 50.0011C200.617 49.7497 199.36 56.5385 204.891 56.5385C208.663 56.2871 214.948 55.5328 218.217 54.0241" stroke="black" stroke-width="2" stroke-linecap="round"/>
<path d="M218.746 60.8127C212.711 60.9804 202.151 60.1918 202.151 64.8358C202.151 71.1217 209.945 68.8588 221.009 66.3444" stroke="black" stroke-width="2" stroke-linecap="round"/>
<path d="M161.921 45.9783C163.597 43.6315 166.648 41.1932 169.464 46.8254C172.28 52.4576 170.637 65.7582 169.967 71.3736C169.464 75.1452 164.435 73.3851 163.178 70.3679" stroke="black" stroke-width="2" stroke-linecap="round"/>
<path d="M258.473 44.9724C250.829 37.3702 231.237 36.8869 218.967 40.1238C217.88 40.4107 217.083 41.3259 216.932 42.4404C215.19 55.3353 218.883 66.4732 221.631 71.7853C222.13 72.7488 223.165 73.2942 224.247 73.2098C236.162 72.2804 245.424 67.2196 249.763 63.9055C250.648 63.2291 250.92 62.0762 250.913 60.962C250.887 56.6362 255.111 54.0412 258.224 52.9044C259.138 52.5705 259.95 51.9129 260.162 50.9629C260.786 48.1726 259.787 46.2789 258.473 44.9724Z" fill="black"/>
<path d="M260.233 47.7388C264.256 44.5539 275.068 38.9385 286.132 41.9557" stroke="black" stroke-width="2" stroke-linecap="round"/>
<path d="M338.682 40.6977C347.231 36.4231 354.523 35.4175 367.346 44.218C382.608 54.692 409.923 45.8943 422.663 38.9378" stroke="black" stroke-width="2" stroke-linecap="round"/>
<path d="M139.04 56.5387C136.626 69.8147 152.785 72.7984 161.167 72.6308C170.218 73.5504 172.984 42.4582 157.646 44.7211C155.086 45.0988 152.832 45.6947 150.858 46.4302C148.092 50.5042 144.466 49.6587 142.56 51.4918C140.589 53.3874 139.478 55.2574 139.04 56.5387Z" fill="black"/>
<path d="M205.238 96.2659L211.524 100.289" stroke="black" stroke-width="2" stroke-linecap="round"/>
<path d="M186.38 93.7512C186.38 96.3494 187.084 102.451 189.9 106.072" stroke="black" stroke-width="2" stroke-linecap="round"/>
<path d="M169.282 91.4886C167.522 93.8353 165.058 99.2329 169.282 102.049" stroke="black" stroke-width="2" stroke-linecap="round"/>
<path d="M202.674 24.8759C203.309 21.5144 205.096 14.0114 207.16 10.8907" stroke="black" stroke-width="2" stroke-linecap="round"/>
<path d="M185.55 24.2288C184.687 22.1349 183.593 16.7497 186.113 11.9598" stroke="black" stroke-width="2" stroke-linecap="round"/>
<path d="M169.67 27.6784C169.056 26.7434 167.996 23.5792 168.658 18.4031" stroke="black" stroke-width="2" stroke-linecap="round"/>
</svg>
