<svg width="29" height="29" viewBox="0 0 29 29" fill="none" xmlns="http://www.w3.org/2000/svg">
<circle cx="14.9817" cy="14.0183" r="14.0183" fill="#1B1B1B"/>
<path d="M10.7242 6.09269C10.7239 6.55167 10.5377 6.99175 10.2065 7.31613C9.87535 7.64051 9.42628 7.82262 8.95813 7.82239C8.48998 7.82216 8.04109 7.63961 7.71023 7.31491C7.37936 6.9902 7.19361 6.54994 7.19385 6.09096C7.19408 5.63199 7.38028 5.19191 7.71148 4.86752C8.04267 4.54314 8.49174 4.36104 8.95989 4.36127C9.42804 4.3615 9.87693 4.54404 10.2078 4.86875C10.5387 5.19345 10.7244 5.63372 10.7242 6.09269ZM10.7771 9.10387H7.2468V19.9372H10.7771V9.10387ZM16.355 9.10387H12.8424V19.9372H16.3197V14.2523C16.3197 11.0854 20.5296 10.7912 20.5296 14.2523V19.9372H24.0158V13.0755C24.0158 7.73673 17.7848 7.93574 16.3197 10.5575L16.355 9.10387Z" fill="white"/>
</svg>
